<svg class="thumb" width="1000" height="1000" viewBox="0,0,600,600" xmlns="http://www.w3.org/2000/svg" xmlns:inkscape="http://www.inkscape.org/namespaces/inkscape" xmlns:sodipodi="http://sodipodi.sourceforge.net/DTD/sodipodi-0.dtd" xmlns:xlink="http://www.w3.org/1999/xlink" xmlns:ns1="http://www.inkscape.org/namespaces/inkscape" xmlns:sketch="http://www.bohemiancoding.com/sketch/ns">
  <defs></defs>
  <g transform="matrix(1.0557,0,0,1.0557,-67.9855,89.1525)">
    <g transform="matrix(0.4035,0.2425,-0.1512,0.2517,368.7271,89.8813)">
      <svg width="153.41" height="378.69" viewBox="-5,-5,153.41,378.69">
        <defs>
          <linearGradient x1="0" y1="0.5" x2="1" y2="0.5" id="linearGradientSke4dp1so4">
            <stop offset="0%" stop-color="#78c0ff"></stop>
            <stop offset="100%" stop-color="#78c0ff"></stop>
          </linearGradient>
        </defs>
        <g></g>
        <g></g>
        <g></g>
        <g>
          <polygon points="71.7 0 0 184.34 71.7 368.69 143.41 184.34 71.7 0" style="" fill="url('#linearGradientSke4dp1so4')" stroke="none"></polygon>
        </g>
      </svg>
    </g>
    <g transform="matrix(0.4035,0.2425,-0.1512,0.2517,310.7271,123.8813)">
      <svg width="153.41" height="378.69" viewBox="-5,-5,153.41,378.69">
        <defs>
          <linearGradient x1="0" y1="0.5" x2="1" y2="0.5" id="linearGradientSke4dp1soa">
            <stop offset="0%" stop-color="#96ceff"></stop>
            <stop offset="100%" stop-color="#96ceff"></stop>
          </linearGradient>
        </defs>
        <g></g>
        <g></g>
        <g></g>
        <g>
          <polygon points="71.7 0 0 184.34 71.7 368.69 143.41 184.34 71.7 0" style="" fill="url('#linearGradientSke4dp1soa')" stroke="none"></polygon>
        </g>
      </svg>
    </g>
    <g transform="matrix(0.4035,0.2425,-0.1512,0.2517,426.7271,59.8813)">
      <svg width="153.41" height="378.69" viewBox="-5,-5,153.41,378.69">
        <defs>
          <linearGradient x1="0" y1="0.5" x2="1" y2="0.5" id="linearGradientSke4dp1sog">
            <stop offset="0%" stop-color="#4c96d7"></stop>
            <stop offset="100%" stop-color="#4c96d7"></stop>
          </linearGradient>
        </defs>
        <g></g>
        <g></g>
        <g></g>
        <g>
          <polygon points="71.7 0 0 184.34 71.7 368.69 143.41 184.34 71.7 0" style="" fill="url('#linearGradientSke4dp1sog')" stroke="none"></polygon>
        </g>
      </svg>
    </g>
    <g transform="matrix(0.4035,0.2425,-0.1512,0.2517,366.7271,28.8813)">
      <svg width="153.41" height="378.69" viewBox="-5,-5,153.41,378.69">
        <defs>
          <linearGradient x1="0" y1="0.5" x2="1" y2="0.5" id="linearGradientSke4dp1som">
            <stop offset="0%" stop-color="#2f7bbd"></stop>
            <stop offset="100%" stop-color="#2f7bbd"></stop>
          </linearGradient>
        </defs>
        <g></g>
        <g></g>
        <g></g>
        <g>
          <polygon points="71.7 0 0 184.34 71.7 368.69 143.41 184.34 71.7 0" style="" fill="url('#linearGradientSke4dp1som')" stroke="none"></polygon>
        </g>
      </svg>
    </g>
    <g transform="matrix(2.4893,0,0,2.4893,210.3283,0.5365)">
      <svg width="105.31621502021291" height="100.99725000000001" viewBox="-2.6599999999999997,-0.4982500000000005,105.31621502021291,100.99725000000001">
        <defs>
          <linearGradient x1="0" y1="0.5" x2="1" y2="0.5" id="linearGradientSke4dp1sos">
            <stop offset="0%" stop-color="#5eb4ff"></stop>
            <stop offset="100%" stop-color="#5eb4ff"></stop>
          </linearGradient>
        </defs>
        <g></g>
        <g></g>
        <g>
          <path fill="url('#linearGradientSke4dp1sos')" d="M97.622,30.671c-0.001-0.004-0.003-0.008-0.004-0.012c-0.003-0.012-0.011-0.022-0.015-0.034   c-0.002-0.007-0.006-0.014-0.009-0.021c-0.021-0.06-0.042-0.119-0.074-0.174c-0.014-0.024-0.034-0.045-0.051-0.068   c-0.002-0.003-0.004-0.006-0.007-0.009c-0.016-0.022-0.03-0.044-0.049-0.065c-0.018-0.021-0.033-0.044-0.053-0.063   c-0.023-0.023-0.053-0.041-0.079-0.062c-0.037-0.03-0.071-0.064-0.113-0.089c-0.006-0.003-0.013-0.004-0.019-0.008   c-0.005-0.003-0.009-0.007-0.014-0.01L73.948,17.412c-0.075-0.055-0.157-0.101-0.245-0.133L50.477,4.624   c-0.299-0.163-0.659-0.163-0.957,0L26.193,17.337c-0.321,0.175-0.521,0.512-0.521,0.878v24.838L2.863,55.48   c-0.033,0.02-0.06,0.045-0.09,0.066c-0.027,0.02-0.055,0.037-0.08,0.059c-0.088,0.076-0.164,0.164-0.22,0.264   c-0.003,0.004-0.007,0.008-0.01,0.012c-0.006,0.012-0.006,0.025-0.012,0.037c-0.045,0.092-0.074,0.189-0.09,0.291   c-0.005,0.031-0.01,0.059-0.012,0.09c-0.002,0.02-0.009,0.039-0.009,0.061v25.426c0,0.367,0.2,0.703,0.521,0.879l23.33,12.713   c0.047,0.025,0.097,0.039,0.146,0.057c0.027,0.01,0.052,0.023,0.079,0.031c0.084,0.021,0.168,0.033,0.253,0.033l0,0h0.001   c0.085,0,0.17-0.012,0.252-0.033c0.003,0,0.006,0,0.009-0.002c0.019-0.004,0.035-0.016,0.053-0.021   c0.01-0.004,0.019-0.008,0.028-0.012c0.046-0.018,0.093-0.029,0.137-0.053l69.986-38.141c0.321-0.174,0.521-0.512,0.521-0.877   V30.934C97.658,30.844,97.646,30.755,97.622,30.671z M50.998,31.527l21.334-11.628v23.154L50.998,54.676V31.527z M50.998,56.953   L72.332,45.33v23.146L50.998,80.104V56.953z M27.672,69.666l21.326-11.623v23.15L27.672,92.814V69.666z M95.658,55.766   L74.332,67.387V44.24l21.326-11.623V55.766z" style="" stroke="none"></path>
        </g>
      </svg>
    </g>
    <g transform="matrix(0.9557,0,0,0.9557,86.4428,246.1701)">
      <svg width="546.4000000000001" height="160" style="overflow: visible;">
        <defs>
          <linearGradient x1="0" y1="0.5" x2="1" y2="0.5" id="linearGradientSke4dp1so14">
            <stop offset="0%" stop-color="#042440"></stop>
            <stop offset="100%" stop-color="#042440"></stop>
          </linearGradient>
        </defs>
        <g transform="matrix(1,0,0,1,0,75)">
          <path d="M 44.2 0L 44.2 0L 10.5 0Q 8.6 0  7.75-0.85Q 6.9-1.7  6.9-3.6L 6.9-3.6L 6.9-68.4Q 6.9-70.3  7.75-71.15Q 8.6-72  10.5-72L 10.5-72L 44.2-72Q 56.7-72  62.75-67Q 68.8-62  68.8-51.6L 68.8-51.6L 68.8-20.4Q 68.8-10  62.75-5Q 56.7 0  44.2 0ZM 41.5-52.9L 29.6-52.9L 29.6-18.9L 41.5-18.9Q 43.9-18.9  45.05-20.1Q 46.2-21.3  46.2-23.8L 46.2-23.8L 46.2-48.1Q 46.2-50.6  45.05-51.75Q 43.9-52.9  41.5-52.9L 41.5-52.9ZM 131.5 0L 131.5 0L 85.10000000000001 0Q 83.2 0  82.35000000000001-0.85Q 81.50000000000001-1.7  81.50000000000001-3.6L 81.50000000000001-3.6L 81.50000000000001-68.4Q 81.50000000000001-70.3  82.35000000000001-71.15Q 83.2-72  85.10000000000001-72L 85.10000000000001-72L 131.5-72Q 133.4-72  134.25-71.15Q 135.10000000000002-70.3  135.10000000000002-68.4L 135.10000000000002-68.4L 135.10000000000002-56.7Q 135.10000000000002-54.8  134.25-53.95Q 133.4-53.1  131.5-53.1L 131.5-53.1L 103.9-53.1L 103.9-45.4L 123.4-45.4Q 125.30000000000001-45.4  126.15-44.55Q 127-43.7  127-41.8L 127-41.8L 127-31.1Q 127-29.2  126.15-28.35Q 125.30000000000001-27.5  123.4-27.5L 123.4-27.5L 103.9-27.5L 103.9-18.9L 131.5-18.9Q 133.4-18.9  134.25-18.05Q 135.10000000000002-17.2  135.10000000000002-15.3L 135.10000000000002-15.3L 135.10000000000002-3.6Q 135.10000000000002-1.7  134.25-0.85Q 133.4 0  131.5 0ZM 189.50000000000003 0L 189.50000000000003 0L 163.50000000000003 0Q 161.60000000000002 0  160.35000000000002-0.7Q 159.10000000000002-1.4  158.40000000000003-3.3L 158.40000000000003-3.3L 148.60000000000002-27.8Q 147.70000000000002-30  147.10000000000002-31.65Q 146.50000000000003-33.3  146.10000000000002-34.8Q 145.70000000000002-36.3  145.55000000000004-37.95Q 145.40000000000003-39.6  145.40000000000003-42L 145.40000000000003-42L 145.40000000000003-68.4Q 145.40000000000003-70.3  146.25000000000003-71.15Q 147.10000000000002-72  149.00000000000003-72L 149.00000000000003-72L 164.90000000000003-72Q 166.80000000000004-72  167.80000000000004-71.15Q 168.80000000000004-70.3  168.80000000000004-68.4L 168.80000000000004-68.4L 168.80000000000004-40.8Q 168.80000000000004-39.8  169.00000000000003-38.8Q 169.20000000000002-37.8  169.60000000000002-36.7L 169.60000000000002-36.7L 174.3-22.7Q 174.60000000000002-21.7  175.00000000000003-21.35Q 175.40000000000003-21  176.20000000000005-21L 176.20000000000005-21L 177.3-21Q 178.10000000000002-21  178.50000000000003-21.35Q 178.90000000000003-21.7  179.20000000000005-22.7L 179.20000000000005-22.7L 183.90000000000003-36.8Q 184.3-37.9  184.50000000000003-38.9Q 184.70000000000005-39.9  184.70000000000005-40.9L 184.70000000000005-40.9L 184.70000000000005-68.4Q 184.70000000000005-70.3  185.55-71.15Q 186.40000000000003-72  188.3-72L 188.3-72L 204.00000000000003-72Q 205.90000000000003-72  206.75000000000003-71.15Q 207.60000000000002-70.3  207.60000000000002-68.4L 207.60000000000002-68.4L 207.60000000000002-42Q 207.60000000000002-39.6  207.45000000000005-37.95Q 207.3-36.3  206.90000000000003-34.8Q 206.50000000000003-33.3  205.90000000000003-31.65Q 205.3-30  204.40000000000003-27.8L 204.40000000000003-27.8L 194.60000000000002-3.3Q 193.90000000000003-1.4  192.65000000000003-0.7Q 191.40000000000003 0  189.50000000000003 0ZM 283.00000000000006 0L 283.00000000000006 0L 268.00000000000006 0Q 266.1000000000001 0  265.25000000000006-0.85Q 264.40000000000003-1.7  264.40000000000003-3.6L 264.40000000000003-3.6L 264.40000000000003-68.4Q 264.40000000000003-70.3  265.25000000000006-71.15Q 266.1000000000001-72  268.00000000000006-72L 268.00000000000006-72L 278.40000000000003-72Q 280.30000000000007-72  281.65000000000003-71.4Q 283.00000000000006-70.8  284.30000000000007-69.3L 284.30000000000007-69.3L 303.70000000000005-47.1L 303.70000000000005-68.4Q 303.70000000000005-70.3  304.55000000000007-71.15Q 305.40000000000003-72  307.30000000000007-72L 307.30000000000007-72L 322.30000000000007-72Q 324.20000000000005-72  325.05000000000007-71.15Q 325.9000000000001-70.3  325.9000000000001-68.4L 325.9000000000001-68.4L 325.9000000000001-3.6Q 325.9000000000001-1.7  325.05000000000007-0.85Q 324.20000000000005 0  322.30000000000007 0L 322.30000000000007 0L 307.30000000000007 0Q 305.40000000000003 0  304.55000000000007-0.85Q 303.70000000000005-1.7  303.70000000000005-3.6L 303.70000000000005-3.6L 303.70000000000005-15.9L 286.6000000000001-36.6L 286.6000000000001-3.6Q 286.6000000000001-1.7  285.75000000000006-0.85Q 284.90000000000003 0  283.00000000000006 0ZM 401.00000000000006-68.4L 401.00000000000006-18.9Q 401.00000000000006-14.3  399.6500000000001-10.55Q 398.30000000000007-6.8  394.8500000000001-4.15Q 391.4000000000001-1.5  385.4000000000001 0Q 379.4000000000001 1.5  370.1000000000001 1.5L 370.1000000000001 1.5Q 360.80000000000007 1.5  354.80000000000007 0Q 348.80000000000007-1.5  345.3500000000001-4.15Q 341.9000000000001-6.8  340.55000000000007-10.55Q 339.20000000000005-14.3  339.20000000000005-18.9L 339.20000000000005-18.9L 339.20000000000005-68.4Q 339.20000000000005-70.3  340.05000000000007-71.15Q 340.9000000000001-72  342.80000000000007-72L 342.80000000000007-72L 358.50000000000006-72Q 360.4000000000001-72  361.25000000000006-71.15Q 362.1000000000001-70.3  362.1000000000001-68.4L 362.1000000000001-68.4L 362.1000000000001-22.8Q 362.1000000000001-20.8  363.6000000000001-19.45Q 365.1000000000001-18.1  370.30000000000007-18.1L 370.30000000000007-18.1Q 375.6000000000001-18.1  377.1000000000001-19.45Q 378.6000000000001-20.8  378.6000000000001-22.8L 378.6000000000001-22.8L 378.6000000000001-68.4Q 378.6000000000001-70.3  379.45000000000005-71.15Q 380.30000000000007-72  382.20000000000005-72L 382.20000000000005-72L 397.4000000000001-72Q 399.30000000000007-72  400.1500000000001-71.15Q 401.00000000000006-70.3  401.00000000000006-68.4L 401.00000000000006-68.4ZM 468.8 0L 468.8 0L 417.90000000000003 0Q 416.00000000000006 0  415.15000000000003-0.85Q 414.3-1.7  414.3-3.6L 414.3-3.6L 414.3-68.4Q 414.3-70.3  415.15000000000003-71.15Q 416.00000000000006-72  417.90000000000003-72L 417.90000000000003-72L 433.40000000000003-72Q 435.3-72  436.15000000000003-71.15Q 437.00000000000006-70.3  437.00000000000006-68.4L 437.00000000000006-68.4L 437.00000000000006-18.9L 450.70000000000005-18.9L 450.70000000000005-35.1Q 450.70000000000005-37  451.55-37.85Q 452.40000000000003-38.7  454.3-38.7L 454.3-38.7L 468.8-38.7Q 470.70000000000005-38.7  471.55000000000007-37.85Q 472.40000000000003-37  472.40000000000003-35.1L 472.40000000000003-35.1L 472.40000000000003-3.6Q 472.40000000000003-1.7  471.55000000000007-0.85Q 470.70000000000005 0  468.8 0ZM 538.3000000000001 0L 538.3000000000001 0L 487.4000000000001 0Q 485.5000000000001 0  484.6500000000001-0.85Q 483.80000000000007-1.7  483.80000000000007-3.6L 483.80000000000007-3.6L 483.80000000000007-68.4Q 483.80000000000007-70.3  484.6500000000001-71.15Q 485.5000000000001-72  487.4000000000001-72L 487.4000000000001-72L 502.9000000000001-72Q 504.80000000000007-72  505.6500000000001-71.15Q 506.5000000000001-70.3  506.5000000000001-68.4L 506.5000000000001-68.4L 506.5000000000001-18.9L 520.2-18.9L 520.2-35.1Q 520.2-37  521.0500000000001-37.85Q 521.9000000000001-38.7  523.8000000000001-38.7L 523.8000000000001-38.7L 538.3000000000001-38.7Q 540.2-38.7  541.0500000000001-37.85Q 541.9000000000001-37  541.9000000000001-35.1L 541.9000000000001-35.1L 541.9000000000001-3.6Q 541.9000000000001-1.7  541.0500000000001-0.85Q 540.2 0  538.3000000000001 0Z" data-textpath="Dev  Null" data-text-anchor="middle" data-font-size="100" data-letterspacing="0" data-side="left" data-offset="0.5" data-dx="0" data-dy="0" data-xmlspace="preserve" data-href="" data-font="Bungee" data-font-src="/Content/clientfonts/bungee.woff" data-font-scale="contain" transform="translate(0,0)" data-x="0" data-y="0" fill="url('#linearGradientSke4dp1so14')"></path>
        </g>
      </svg>
    </g>
    <g transform="matrix(0.6717,0,0,0.6717,88.1828,335.0858)">
      <svg width="767.8000000000001" height="160" style="overflow: visible;">
        <defs>
          <linearGradient x1="0" y1="0.5" x2="1" y2="0.5" id="linearGradientSke4dp1so17">
            <stop offset="0%" stop-color="#042440"></stop>
            <stop offset="100%" stop-color="#042440"></stop>
          </linearGradient>
        </defs>
        <g transform="matrix(1,0,0,1,0,75)">
          <path d="M 26 0L 26 0L 10.5 0Q 8.6 0  7.75-0.85Q 6.9-1.7  6.9-3.6L 6.9-3.6L 6.9-68.4Q 6.9-70.3  7.75-71.15Q 8.6-72  10.5-72L 10.5-72L 41.1-72Q 54.7-72  59.7-66.6Q 64.7-61.2  64.7-52.5L 64.7-52.5L 64.7-39.7Q 64.7-31  59.7-25.6Q 54.7-20.2  41.1-20.2L 41.1-20.2L 29.6-20.2L 29.6-3.6Q 29.6-1.7  28.75-0.85Q 27.9 0  26 0ZM 38.4-53.3L 29.4-53.3L 29.4-38.2L 38.4-38.2Q 41.3-38.2  42.2-39.7Q 43.1-41.2  43.1-43.1L 43.1-43.1L 43.1-48.4Q 43.1-50.3  42.2-51.8Q 41.3-53.3  38.4-53.3L 38.4-53.3ZM 105.20000000000005-54L 97.70000000000005-54L 97.70000000000005-41.2L 105.20000000000005-41.2Q 107.80000000000004-41.2  108.70000000000005-42.55Q 109.60000000000005-43.9  109.60000000000005-45.9L 109.60000000000005-45.9L 109.60000000000005-49.3Q 109.60000000000005-51.3  108.70000000000005-52.65Q 107.80000000000004-54  105.20000000000005-54L 105.20000000000005-54ZM 94.10000000000005 0L 94.10000000000005 0L 78.70000000000005 0Q 76.80000000000004 0  75.95000000000005-0.85Q 75.10000000000005-1.7  75.10000000000005-3.6L 75.10000000000005-3.6L 75.10000000000005-68.4Q 75.10000000000005-70.3  75.95000000000005-71.15Q 76.80000000000004-72  78.70000000000005-72L 78.70000000000005-72L 112.00000000000004-72Q 123.20000000000005-72  127.45000000000005-67.35Q 131.70000000000005-62.7  131.70000000000005-55.3L 131.70000000000005-55.3L 131.70000000000005-50.7Q 131.70000000000005-46.5  130.45000000000005-43.55Q 129.20000000000005-40.6  126.10000000000005-39.3L 126.10000000000005-39.3Q 131.50000000000006-38.7  134.85000000000005-34.9Q 138.20000000000005-31.1  138.20000000000005-24.8L 138.20000000000005-24.8L 138.20000000000005-3.6Q 138.20000000000005-1.7  137.35000000000005-0.85Q 136.50000000000006 0  134.60000000000005 0L 134.60000000000005 0L 119.10000000000005 0Q 117.20000000000005 0  116.35000000000005-0.85Q 115.50000000000004-1.7  115.50000000000004-3.6L 115.50000000000004-3.6L 115.50000000000004-18.9Q 115.50000000000004-21.1  114.65000000000005-22.15Q 113.80000000000004-23.2  111.70000000000005-23.2L 111.70000000000005-23.2L 97.70000000000005-23.2L 97.70000000000005-3.6Q 97.70000000000005-1.7  96.85000000000005-0.85Q 96.00000000000004 0  94.10000000000005 0ZM 209.9000000000001-53L 209.9000000000001-18.9Q 209.9000000000001-14.3  208.55000000000007-10.55Q 207.2000000000001-6.8  203.75000000000009-4.15Q 200.30000000000007-1.5  194.25000000000009 0Q 188.2000000000001 1.5  178.9000000000001 1.5L 178.9000000000001 1.5Q 169.60000000000008 1.5  163.50000000000009 0Q 157.4000000000001-1.5  153.95000000000007-4.15Q 150.50000000000009-6.8  149.1500000000001-10.55Q 147.8000000000001-14.3  147.8000000000001-18.9L 147.8000000000001-18.9L 147.8000000000001-53Q 147.8000000000001-57.6  149.1500000000001-61.35Q 150.50000000000009-65.1  153.95000000000007-67.8Q 157.4000000000001-70.5  163.50000000000009-72Q 169.60000000000008-73.5  178.9000000000001-73.5L 178.9000000000001-73.5Q 188.2000000000001-73.5  194.25000000000009-72Q 200.30000000000007-70.5  203.75000000000009-67.8Q 207.2000000000001-65.1  208.55000000000007-61.35Q 209.9000000000001-57.6  209.9000000000001-53L 209.9000000000001-53ZM 170.50000000000009-49.4L 170.50000000000009-22.5Q 170.50000000000009-20.5  172.00000000000009-19.15Q 173.50000000000009-17.8  178.9000000000001-17.8L 178.9000000000001-17.8Q 184.30000000000007-17.8  185.80000000000007-19.15Q 187.30000000000007-20.5  187.30000000000007-22.5L 187.30000000000007-22.5L 187.30000000000007-49.4Q 187.30000000000007-51.3  185.80000000000007-52.65Q 184.30000000000007-54  178.9000000000001-54L 178.9000000000001-54Q 173.50000000000009-54  172.00000000000009-52.65Q 170.50000000000009-51.3  170.50000000000009-49.4L 170.50000000000009-49.4ZM 259.9000000000001 0L 259.9000000000001 0L 226.2000000000001 0Q 224.3000000000001 0  223.4500000000001-0.85Q 222.6000000000001-1.7  222.6000000000001-3.6L 222.6000000000001-3.6L 222.6000000000001-68.4Q 222.6000000000001-70.3  223.4500000000001-71.15Q 224.3000000000001-72  226.2000000000001-72L 226.2000000000001-72L 259.9000000000001-72Q 272.4000000000001-72  278.4500000000001-67Q 284.5000000000001-62  284.5000000000001-51.6L 284.5000000000001-51.6L 284.5000000000001-20.4Q 284.5000000000001-10  278.4500000000001-5Q 272.4000000000001 0  259.9000000000001 0ZM 257.2000000000001-52.9L 245.3000000000001-52.9L 245.3000000000001-18.9L 257.2000000000001-18.9Q 259.6000000000001-18.9  260.7500000000001-20.1Q 261.9000000000001-21.3  261.9000000000001-23.8L 261.9000000000001-23.8L 261.9000000000001-48.1Q 261.9000000000001-50.6  260.7500000000001-51.75Q 259.6000000000001-52.9  257.2000000000001-52.9L 257.2000000000001-52.9ZM 358.5000000000001-68.4L 358.5000000000001-18.9Q 358.5000000000001-14.3  357.1500000000001-10.55Q 355.8000000000001-6.8  352.35000000000014-4.15Q 348.90000000000015-1.5  342.90000000000015 0Q 336.90000000000015 1.5  327.60000000000014 1.5L 327.60000000000014 1.5Q 318.3000000000001 1.5  312.3000000000001 0Q 306.3000000000001-1.5  302.85000000000014-4.15Q 299.40000000000015-6.8  298.0500000000001-10.55Q 296.7000000000001-14.3  296.7000000000001-18.9L 296.7000000000001-18.9L 296.7000000000001-68.4Q 296.7000000000001-70.3  297.5500000000001-71.15Q 298.40000000000015-72  300.3000000000001-72L 300.3000000000001-72L 316.0000000000001-72Q 317.90000000000015-72  318.7500000000001-71.15Q 319.60000000000014-70.3  319.60000000000014-68.4L 319.60000000000014-68.4L 319.60000000000014-22.8Q 319.60000000000014-20.8  321.10000000000014-19.45Q 322.60000000000014-18.1  327.8000000000001-18.1L 327.8000000000001-18.1Q 333.10000000000014-18.1  334.60000000000014-19.45Q 336.10000000000014-20.8  336.10000000000014-22.8L 336.10000000000014-22.8L 336.10000000000014-68.4Q 336.10000000000014-70.3  336.9500000000001-71.15Q 337.8000000000001-72  339.7000000000001-72L 339.7000000000001-72L 354.9000000000001-72Q 356.8000000000001-72  357.6500000000001-71.15Q 358.5000000000001-70.3  358.5000000000001-68.4L 358.5000000000001-68.4ZM 419.70000000000016 0L 419.70000000000016 0L 395.3000000000001 0Q 382.8000000000001 0  376.75000000000017-5Q 370.70000000000016-10  370.70000000000016-20.4L 370.70000000000016-20.4L 370.70000000000016-51.5Q 370.70000000000016-61.9  376.75000000000017-66.95Q 382.8000000000001-72  395.3000000000001-72L 395.3000000000001-72L 419.70000000000016-72Q 421.60000000000014-72  422.45000000000016-71.15Q 423.3000000000001-70.3  423.3000000000001-68.4L 423.3000000000001-68.4L 423.3000000000001-56.3Q 423.3000000000001-54.4  422.45000000000016-53.55Q 421.60000000000014-52.7  419.70000000000016-52.7L 419.70000000000016-52.7L 399.60000000000014-52.7Q 396.50000000000017-52.7  395.00000000000017-51.45Q 393.50000000000017-50.2  393.50000000000017-47.7L 393.50000000000017-47.7L 393.50000000000017-23.9Q 393.50000000000017-21.4  395.00000000000017-20.25Q 396.50000000000017-19.1  399.60000000000014-19.1L 399.60000000000014-19.1L 419.70000000000016-19.1Q 421.60000000000014-19.1  422.45000000000016-18.25Q 423.3000000000001-17.4  423.3000000000001-15.5L 423.3000000000001-15.5L 423.3000000000001-3.6Q 423.3000000000001-1.7  422.45000000000016-0.85Q 421.60000000000014 0  419.70000000000016 0ZM 468.6 0L 468.6 0L 452.40000000000003 0Q 450.50000000000006 0  449.65000000000003-0.85Q 448.80000000000007-1.7  448.80000000000007-3.6L 448.80000000000007-3.6L 448.80000000000007-52.7L 434.1-52.7Q 432.20000000000005-52.7  431.35-53.55Q 430.50000000000006-54.4  430.50000000000006-56.3L 430.50000000000006-56.3L 430.50000000000006-68.4Q 430.50000000000006-70.3  431.35-71.15Q 432.20000000000005-72  434.1-72L 434.1-72L 486.90000000000003-72Q 488.80000000000007-72  489.65000000000003-71.15Q 490.50000000000006-70.3  490.50000000000006-68.4L 490.50000000000006-68.4L 490.50000000000006-56.3Q 490.50000000000006-54.4  489.65000000000003-53.55Q 488.80000000000007-52.7  486.90000000000003-52.7L 486.90000000000003-52.7L 472.20000000000005-52.7L 472.20000000000005-3.6Q 472.20000000000005-1.7  471.35-0.85Q 470.50000000000006 0  468.6 0ZM 544.8000000000001 0L 502.20000000000005 0Q 500.30000000000007 0  499.45000000000005-0.85Q 498.6000000000001-1.7  498.6000000000001-3.6L 498.6000000000001-3.6L 498.6000000000001-15.5Q 498.6000000000001-17.4  499.45000000000005-18.25Q 500.30000000000007-19.1  502.20000000000005-19.1L 502.20000000000005-19.1L 512.1-19.1L 512.1-52.7L 502.20000000000005-52.7Q 500.30000000000007-52.7  499.45000000000005-53.55Q 498.6000000000001-54.4  498.6000000000001-56.3L 498.6000000000001-56.3L 498.6000000000001-68.4Q 498.6000000000001-70.3  499.45000000000005-71.15Q 500.30000000000007-72  502.20000000000005-72L 502.20000000000005-72L 544.8000000000001-72Q 546.7-72  547.5500000000001-71.15Q 548.4000000000001-70.3  548.4000000000001-68.4L 548.4000000000001-68.4L 548.4000000000001-56.3Q 548.4000000000001-54.4  547.5500000000001-53.55Q 546.7-52.7  544.8000000000001-52.7L 544.8000000000001-52.7L 535.1-52.7L 535.1-19.1L 544.8000000000001-19.1Q 546.7-19.1  547.5500000000001-18.25Q 548.4000000000001-17.4  548.4000000000001-15.5L 548.4000000000001-15.5L 548.4000000000001-3.6Q 548.4000000000001-1.7  547.5500000000001-0.85Q 546.7 0  544.8000000000001 0L 544.8000000000001 0ZM 621.6999999999999-53L 621.6999999999999-18.9Q 621.6999999999999-14.3  620.3499999999999-10.55Q 619-6.8  615.55-4.15Q 612.0999999999999-1.5  606.05 0Q 600 1.5  590.6999999999999 1.5L 590.6999999999999 1.5Q 581.4 1.5  575.3 0Q 569.1999999999999-1.5  565.75-4.15Q 562.3-6.8  560.9499999999999-10.55Q 559.5999999999999-14.3  559.5999999999999-18.9L 559.5999999999999-18.9L 559.5999999999999-53Q 559.5999999999999-57.6  560.9499999999999-61.35Q 562.3-65.1  565.75-67.8Q 569.1999999999999-70.5  575.3-72Q 581.4-73.5  590.6999999999999-73.5L 590.6999999999999-73.5Q 600-73.5  606.05-72Q 612.0999999999999-70.5  615.55-67.8Q 619-65.1  620.3499999999999-61.35Q 621.6999999999999-57.6  621.6999999999999-53L 621.6999999999999-53ZM 582.3-49.4L 582.3-22.5Q 582.3-20.5  583.8-19.15Q 585.3-17.8  590.6999999999999-17.8L 590.6999999999999-17.8Q 596.0999999999999-17.8  597.5999999999999-19.15Q 599.0999999999999-20.5  599.0999999999999-22.5L 599.0999999999999-22.5L 599.0999999999999-49.4Q 599.0999999999999-51.3  597.5999999999999-52.65Q 596.0999999999999-54  590.6999999999999-54L 590.6999999999999-54Q 585.3-54  583.8-52.65Q 582.3-51.3  582.3-49.4L 582.3-49.4ZM 653 0L 653 0L 638 0Q 636.1 0  635.25-0.85Q 634.4-1.7  634.4-3.6L 634.4-3.6L 634.4-68.4Q 634.4-70.3  635.25-71.15Q 636.1-72  638-72L 638-72L 648.4-72Q 650.3-72  651.65-71.4Q 653-70.8  654.3-69.3L 654.3-69.3L 673.7-47.1L 673.7-68.4Q 673.7-70.3  674.55-71.15Q 675.4-72  677.3-72L 677.3-72L 692.3-72Q 694.2-72  695.05-71.15Q 695.9-70.3  695.9-68.4L 695.9-68.4L 695.9-3.6Q 695.9-1.7  695.05-0.85Q 694.2 0  692.3 0L 692.3 0L 677.3 0Q 675.4 0  674.55-0.85Q 673.7-1.7  673.7-3.6L 673.7-3.6L 673.7-15.9L 656.6-36.6L 656.6-3.6Q 656.6-1.7  655.75-0.85Q 654.9 0  653 0ZM 743.1 0L 743.1 0L 711.5000000000001 0Q 709.6 0  708.7500000000001-0.85Q 707.9000000000001-1.7  707.9000000000001-3.6L 707.9000000000001-3.6L 707.9000000000001-15.3Q 707.9000000000001-17.2  708.7500000000001-18.05Q 709.6-18.9  711.5000000000001-18.9L 711.5000000000001-18.9L 738.4000000000001-18.9Q 739.7-18.9  740.35-19.75Q 741.0000000000001-20.6  741.0000000000001-21.8L 741.0000000000001-21.8Q 741.0000000000001-23.5  740.35-24.3Q 739.7-25.1  738.4000000000001-25.2L 738.4000000000001-25.2L 723.4000000000001-27.3Q 716.4000000000001-28.3  712.1500000000001-31.9Q 707.9000000000001-35.5  707.9000000000001-43.9L 707.9000000000001-43.9L 707.9000000000001-54.4Q 707.9000000000001-62.9  713.4000000000001-67.45Q 718.9000000000001-72  728.6-72L 728.6-72L 756.6-72Q 758.5000000000001-72  759.35-71.15Q 760.2-70.3  760.2-68.4L 760.2-68.4L 760.2-56.5Q 760.2-54.6  759.35-53.75Q 758.5000000000001-52.9  756.6-52.9L 756.6-52.9L 733.3000000000001-52.9Q 732.0000000000001-52.9  731.3000000000001-52.05Q 730.6-51.2  730.6-49.9L 730.6-49.9Q 730.6-48.6  731.3000000000001-47.7Q 732.0000000000001-46.8  733.3000000000001-46.7L 733.3000000000001-46.7L 748.2-44.7Q 755.2-43.7  759.5000000000001-40.1Q 763.8000000000001-36.5  763.8000000000001-28.1L 763.8000000000001-28.1L 763.8000000000001-17.6Q 763.8000000000001-9.1  758.2500000000001-4.55Q 752.7 0  743.1 0Z" data-textpath="Productions" data-text-anchor="middle" data-font-size="100" data-letterspacing="0" data-side="left" data-offset="0.5" data-dx="0" data-dy="0" data-xmlspace="preserve" data-href="" data-font="Bungee" data-font-src="/Content/clientfonts/bungee.woff" data-font-scale="contain" transform="translate(0,0)" data-x="0" data-y="0" fill="url('#linearGradientSke4dp1so17')"></path>
        </g>
      </svg>
    </g>
  </g>
</svg>